<svg id="svg" version="1.1" xmlns="http://www.w3.org/2000/svg" xmlns:xlink="http://www.w3.org/1999/xlink" width="231"  viewBox="0, 0, 400,400"><g id="svgg"><path id="path0" d="M183.500 101.562 C 174.517 106.783,157.192 116.838,145.000 123.906 C 132.808 130.974,122.815 136.774,122.794 136.795 C 122.772 136.816,122.656 142.683,122.537 149.833 L 122.320 162.833 129.345 166.833 C 133.209 169.033,136.664 171.058,137.022 171.333 C 137.633 171.803,137.212 172.100,130.178 176.167 L 122.681 180.500 122.673 185.333 C 122.668 187.992,122.574 193.842,122.464 198.333 L 122.264 206.500 127.215 209.310 C 129.939 210.855,137.792 215.370,144.667 219.342 C 151.542 223.315,161.292 228.934,166.333 231.829 C 171.375 234.724,177.750 238.396,180.500 239.989 C 196.175 249.067,199.783 251.110,200.123 251.103 C 200.330 251.098,212.575 244.078,227.333 235.502 C 242.092 226.926,259.342 216.910,265.667 213.244 C 271.992 209.578,277.184 206.561,277.206 206.539 C 277.227 206.518,277.344 200.650,277.466 193.500 L 277.687 180.500 270.167 176.201 C 266.030 173.837,262.588 171.809,262.517 171.695 C 262.447 171.581,265.748 169.540,269.854 167.161 L 277.319 162.833 277.328 157.667 C 277.334 154.825,277.426 148.975,277.534 144.667 L 277.730 136.833 265.448 129.790 C 258.693 125.916,241.467 116.002,227.167 107.758 C 212.867 99.514,200.867 92.611,200.500 92.419 C 199.933 92.122,197.396 93.486,183.500 101.562 M226.388 133.614 C 240.933 142.019,253.257 149.116,253.775 149.386 C 254.518 149.774,254.623 149.952,254.275 150.231 C 253.798 150.614,239.996 158.667,239.817 158.667 C 239.758 158.667,231.037 153.665,220.438 147.551 C 209.839 141.438,200.867 136.280,200.500 136.089 C 199.933 135.794,196.883 137.451,180.167 147.140 L 160.501 158.540 152.934 154.186 C 147.253 150.918,145.467 149.741,145.767 149.464 C 145.987 149.261,154.042 144.541,163.667 138.977 C 173.292 133.412,185.217 126.495,190.167 123.606 C 195.117 120.716,199.341 118.347,199.554 118.342 C 199.767 118.337,211.842 125.210,226.388 133.614 M208.390 166.864 C 213.034 169.539,216.878 171.772,216.933 171.825 C 216.988 171.878,213.613 173.914,209.433 176.350 C 205.253 178.785,201.530 180.973,201.158 181.211 C 200.467 181.656,183.529 172.367,183.449 171.500 C 183.416 171.146,198.893 162.028,199.557 162.010 C 199.772 162.005,203.747 164.189,208.390 166.864 M170.229 190.442 C 199.219 207.292,199.970 207.706,200.760 207.289 C 201.167 207.075,209.871 202.031,220.102 196.080 C 230.333 190.130,238.958 185.197,239.268 185.119 C 239.925 184.953,254.167 193.072,254.167 193.612 C 254.167 193.975,201.143 225.064,200.470 225.095 C 200.271 225.104,193.371 221.212,185.137 216.447 C 176.903 211.682,164.590 204.569,157.773 200.642 C 150.957 196.714,145.500 193.377,145.647 193.226 C 145.867 193.001,160.027 184.696,160.229 184.674 C 160.263 184.670,164.763 187.266,170.229 190.442 M68.119 279.990 C 65.353 281.134,66.167 285.133,69.167 285.133 C 70.613 285.133,72.000 283.844,72.000 282.500 C 72.000 280.800,69.723 279.327,68.119 279.990 M305.786 279.990 C 303.020 281.134,303.834 285.133,306.833 285.133 C 308.280 285.133,309.667 283.844,309.667 282.500 C 309.667 280.800,307.389 279.327,305.786 279.990 M96.333 285.218 C 96.333 289.532,96.303 289.742,95.750 289.243 C 90.817 284.790,83.682 291.522,85.008 299.381 C 85.973 305.103,92.064 308.561,95.497 305.337 L 96.359 304.526 96.552 305.263 C 96.726 305.930,96.955 306.000,98.956 306.000 L 101.167 306.000 101.167 293.333 L 101.167 280.667 98.750 280.667 L 96.333 280.667 96.333 285.218 M38.333 294.167 L 38.333 306.000 40.333 306.000 L 42.333 306.000 42.333 300.500 L 42.333 295.000 46.833 295.000 L 51.333 295.000 51.333 293.167 L 51.333 291.333 46.833 291.333 L 42.333 291.333 42.333 288.667 L 42.333 286.000 47.833 286.000 L 53.333 286.000 53.333 284.167 L 53.333 282.333 45.833 282.333 L 38.333 282.333 38.333 294.167 M161.833 283.101 C 154.082 286.796,154.015 302.316,161.735 305.673 C 165.290 307.218,169.369 306.532,171.852 303.971 L 173.167 302.615 171.833 301.479 C 170.293 300.167,169.827 300.077,169.335 300.997 C 168.380 302.781,165.046 303.223,163.344 301.791 C 159.598 298.639,159.776 289.361,163.633 286.763 C 165.861 285.262,168.821 286.039,169.808 288.385 L 170.204 289.326 171.765 288.247 C 173.584 286.989,173.552 287.090,172.578 285.645 C 170.446 282.481,165.560 281.324,161.833 283.101 M328.583 284.243 C 327.417 284.365,327.333 284.447,327.333 285.478 C 327.333 288.327,327.096 288.667,325.108 288.667 L 323.298 288.667 323.399 290.417 L 323.500 292.167 325.204 292.266 L 326.909 292.365 326.871 297.107 C 326.815 304.150,328.191 306.333,332.685 306.333 C 336.749 306.333,338.853 305.037,338.308 302.870 C 337.869 301.126,337.763 301.081,336.258 301.999 C 332.515 304.281,330.610 301.173,331.481 294.204 L 331.711 292.360 334.439 292.263 L 337.167 292.167 337.267 290.417 L 337.368 288.667 334.472 288.667 L 331.575 288.667 331.787 286.862 C 331.904 285.869,332.090 284.819,332.202 284.528 C 332.414 283.977,331.681 283.919,328.583 284.243 M115.239 288.364 C 107.416 290.206,106.205 302.154,113.498 305.550 C 116.755 307.066,121.529 306.442,123.610 304.227 L 124.330 303.461 123.214 302.379 L 122.098 301.298 120.873 302.021 C 117.921 303.763,114.089 302.466,113.179 299.417 L 112.955 298.667 118.788 298.667 C 125.472 298.667,125.258 298.777,124.822 295.564 C 124.297 291.693,122.138 289.038,118.963 288.357 C 117.086 287.954,116.979 287.954,115.239 288.364 M142.333 288.382 C 141.692 288.566,140.679 289.186,140.083 289.758 L 139.000 290.797 139.000 289.732 L 139.000 288.667 136.667 288.667 L 134.333 288.667 134.333 297.333 L 134.333 306.000 136.667 306.000 L 139.000 306.000 139.000 300.634 C 139.000 294.686,139.272 293.574,140.973 292.569 C 142.636 291.587,144.578 291.813,145.824 293.134 L 146.893 294.268 147.780 292.460 C 148.927 290.121,148.905 289.922,147.417 289.097 C 145.847 288.227,143.846 287.946,142.333 288.382 M185.940 288.452 C 181.051 289.809,178.394 295.479,180.185 300.735 C 182.738 308.228,193.601 308.211,196.157 300.709 C 198.584 293.587,192.733 286.568,185.940 288.452 M208.570 288.631 C 207.890 288.978,207.333 289.128,207.333 288.964 C 207.333 288.800,206.433 288.667,205.333 288.667 L 203.333 288.667 203.333 297.333 L 203.333 306.000 205.333 306.000 L 207.333 306.000 207.333 299.883 C 207.333 293.694,207.599 291.892,208.566 291.521 C 209.853 291.027,210.000 291.796,210.000 299.041 L 210.000 306.000 212.000 306.000 L 214.000 306.000 214.000 299.519 C 214.000 293.075,214.005 293.032,214.834 292.102 C 216.397 290.350,216.667 291.399,216.667 299.230 L 216.667 306.000 218.689 306.000 L 220.712 306.000 220.606 298.417 C 220.486 289.836,220.295 289.036,218.194 288.342 C 216.778 287.875,214.728 288.345,213.823 289.345 C 213.269 289.957,213.177 289.971,212.903 289.481 C 212.626 288.987,210.746 288.000,210.081 288.000 C 209.931 288.000,209.251 288.284,208.570 288.631 M232.237 288.631 C 231.557 288.978,231.000 289.128,231.000 288.964 C 231.000 288.800,230.100 288.667,229.000 288.667 L 227.000 288.667 227.000 297.333 L 227.000 306.000 229.000 306.000 L 231.000 306.000 231.000 299.883 C 231.000 293.694,231.266 291.892,232.232 291.521 C 233.520 291.027,233.667 291.796,233.667 299.041 L 233.667 306.000 235.667 306.000 L 237.667 306.000 237.667 299.519 C 237.667 293.075,237.672 293.032,238.501 292.102 C 240.064 290.350,240.333 291.399,240.333 299.230 L 240.333 306.000 242.356 306.000 L 244.378 306.000 244.273 298.417 C 244.153 289.836,243.961 289.036,241.861 288.342 C 240.445 287.875,238.394 288.345,237.490 289.345 C 236.936 289.957,236.843 289.971,236.570 289.481 C 236.293 288.987,234.413 288.000,233.748 288.000 C 233.597 288.000,232.918 288.284,232.237 288.631 M283.562 288.324 C 283.046 288.487,282.108 289.014,281.478 289.494 L 280.333 290.367 280.333 289.517 C 280.333 288.686,280.279 288.667,278.000 288.667 L 275.667 288.667 275.667 297.333 L 275.667 306.000 278.000 306.000 L 280.333 306.000 280.333 300.074 C 280.333 293.595,280.448 293.142,282.337 292.165 C 285.605 290.475,286.333 291.840,286.333 299.652 L 286.333 306.000 288.691 306.000 L 291.049 306.000 290.941 299.250 C 290.791 289.838,288.677 286.709,283.562 288.324 M63.000 290.500 L 63.000 292.333 65.000 292.333 L 67.000 292.333 67.000 297.317 L 67.000 302.302 64.917 302.401 L 62.833 302.500 62.733 304.250 L 62.632 306.000 69.167 306.000 L 75.702 306.000 75.601 304.250 L 75.500 302.500 73.583 302.400 L 71.667 302.300 71.667 295.483 L 71.667 288.667 67.333 288.667 L 63.000 288.667 63.000 290.500 M251.719 295.083 C 251.846 302.239,252.268 303.863,254.392 305.375 C 256.288 306.725,259.880 306.619,261.611 305.163 C 262.623 304.311,263.000 304.373,263.000 305.389 C 263.000 305.920,263.289 306.000,265.202 306.000 C 267.074 306.000,267.374 305.921,267.202 305.473 C 267.091 305.183,267.000 301.283,267.000 296.806 L 267.000 288.667 264.667 288.667 L 262.333 288.667 262.333 294.350 C 262.333 301.350,261.840 302.667,259.216 302.667 C 256.667 302.667,256.333 301.723,256.333 294.517 L 256.333 288.667 253.969 288.667 L 251.605 288.667 251.719 295.083 M300.667 290.500 L 300.667 292.333 302.667 292.333 L 304.667 292.333 304.667 297.317 L 304.667 302.302 302.583 302.401 L 300.500 302.500 300.399 304.250 L 300.298 306.000 306.833 306.000 L 313.368 306.000 313.267 304.250 L 313.167 302.500 311.250 302.400 L 309.333 302.300 309.333 295.483 L 309.333 288.667 305.000 288.667 L 300.667 288.667 300.667 290.500 M348.405 294.417 C 353.227 306.149,352.944 305.327,352.537 306.418 C 351.597 308.936,349.606 309.705,348.003 308.169 L 347.136 307.339 346.248 309.150 L 345.359 310.962 346.522 311.680 C 349.519 313.533,353.586 312.389,355.217 309.236 C 356.187 307.361,361.975 291.441,362.201 290.028 L 362.424 288.633 360.295 288.733 C 358.198 288.832,358.165 288.848,358.077 289.833 C 357.967 291.070,355.291 299.333,355.001 299.333 C 354.885 299.333,353.853 296.933,352.708 294.000 L 350.625 288.667 348.334 288.667 L 346.042 288.667 348.405 294.417 M95.039 292.536 C 96.233 293.615,96.722 297.422,96.001 300.018 C 94.606 305.037,89.333 302.770,89.333 297.152 C 89.333 292.743,92.467 290.208,95.039 292.536 M119.583 292.831 C 121.306 294.835,120.759 295.333,116.833 295.333 C 112.925 295.333,112.570 295.060,114.046 293.184 C 115.447 291.403,118.203 291.228,119.583 292.831 M190.216 292.488 C 191.831 293.620,192.670 298.078,191.643 300.073 C 189.232 304.758,184.316 302.931,184.289 297.340 C 184.273 293.908,185.658 292.000,188.167 292.000 C 188.910 292.000,189.832 292.220,190.216 292.488 " stroke="none" fill="#ec4444" fill-rule="evenodd"></path><path id="path1" d="" stroke="none" fill="#f04444" fill-rule="evenodd"></path><path id="path2" d="" stroke="none" fill="#f04444" fill-rule="evenodd"></path><path id="path3" d="" stroke="none" fill="#f04444" fill-rule="evenodd"></path><path id="path4" d="" stroke="none" fill="#f04444" fill-rule="evenodd"></path></g></svg>